<svg width="24" height="24" viewBox="0 0 24 24" fill="none" xmlns="http://www.w3.org/2000/svg">
<path d="M12 15.5C11.1656 15.5 10.5714 16.1957 10.5714 16.95C10.5714 17.7043 11.1656 18.4 12 18.4C12.8344 18.4 13.4286 17.7043 13.4286 16.95C13.4286 16.1957 12.8344 15.5 12 15.5Z" fill="#fff"/>
<path d="M12 15.5C11.1656 15.5 10.5714 16.1957 10.5714 16.95C10.5714 17.7043 11.1656 18.4 12 18.4C12.8344 18.4 13.4286 17.7043 13.4286 16.95C13.4286 16.1957 12.8344 15.5 12 15.5Z" fill="#fff" fill-opacity="0.2"/>
<path d="M12 15.5C11.1656 15.5 10.5714 16.1957 10.5714 16.95C10.5714 17.7043 11.1656 18.4 12 18.4C12.8344 18.4 13.4286 17.7043 13.4286 16.95C13.4286 16.1957 12.8344 15.5 12 15.5Z" fill="#fff" fill-opacity="0.2"/>
<path d="M12 15.5C11.1656 15.5 10.5714 16.1957 10.5714 16.95C10.5714 17.7043 11.1656 18.4 12 18.4C12.8344 18.4 13.4286 17.7043 13.4286 16.95C13.4286 16.1957 12.8344 15.5 12 15.5Z" fill="#fff" fill-opacity="0.2"/>
<path d="M12 15.5C11.1656 15.5 10.5714 16.1957 10.5714 16.95C10.5714 17.7043 11.1656 18.4 12 18.4C12.8344 18.4 13.4286 17.7043 13.4286 16.95C13.4286 16.1957 12.8344 15.5 12 15.5Z" fill="#fff" fill-opacity="0.2"/>
<path fill-rule="evenodd" clip-rule="evenodd" d="M8.70418 2C8.25727 1.99998 7.86048 1.99996 7.53144 2.02819C7.17974 2.05836 6.81631 2.12612 6.46428 2.31445C5.94998 2.58961 5.54078 3.02365 5.28718 3.54625C5.11608 3.89884 5.05425 4.26191 5.02637 4.62019C4.99997 4.95949 4.99998 5.37067 5 5.8437V18.1563C4.99998 18.6293 4.99997 19.0405 5.02637 19.3798C5.05425 19.7381 5.11608 20.1012 5.28718 20.4538C5.54078 20.9764 5.94998 21.4104 6.46428 21.6856C6.81631 21.8739 7.17974 21.9416 7.53144 21.9718C7.86049 22 8.25727 22 8.7042 22H15.2958C15.7427 22 16.1395 22 16.4686 21.9718C16.8203 21.9416 17.1837 21.8739 17.5357 21.6856C18.05 21.4104 18.4592 20.9764 18.7128 20.4538C18.8839 20.1012 18.9458 19.7381 18.9736 19.3798C19 19.0405 19 18.6293 19 18.1563V5.84371C19 5.37068 19 4.95949 18.9736 4.62019C18.9458 4.26191 18.8839 3.89883 18.7128 3.54625C18.4592 3.02364 18.05 2.58961 17.5357 2.31445C17.1837 2.12612 16.8203 2.05836 16.4686 2.02819C16.1395 1.99996 15.7428 1.99998 15.2958 2H8.70418ZM7.40775 4.07793C7.42243 4.07008 7.48237 4.03974 7.70239 4.02087C7.93561 4.00086 8.2455 4 8.74286 4H15.2571C15.7545 4 16.0644 4.00086 16.2976 4.02087C16.5176 4.03974 16.5776 4.07008 16.5923 4.07793C16.7231 4.14792 16.8384 4.26461 16.9135 4.4194C16.9292 4.45185 16.9608 4.53331 16.9797 4.77534C16.9993 5.0277 17 5.36023 17 5.88V18.12C17 18.6398 16.9993 18.9723 16.9797 19.2247C16.9608 19.4667 16.9292 19.5482 16.9135 19.5806C16.8384 19.7354 16.7231 19.8521 16.5923 19.9221C16.5776 19.9299 16.5176 19.9603 16.2976 19.9791C16.0644 19.9991 15.7545 20 15.2571 20H8.74286C8.2455 20 7.93561 19.9991 7.70239 19.9791C7.48237 19.9603 7.42243 19.9299 7.40775 19.9221C7.27693 19.8521 7.16162 19.7354 7.08651 19.5806C7.07077 19.5482 7.03918 19.4667 7.02034 19.2247C7.00071 18.9723 7 18.6398 7 18.12V5.88C7 5.36023 7.00071 5.0277 7.02034 4.77534C7.03918 4.53331 7.07077 4.45185 7.08651 4.4194C7.16163 4.26461 7.27693 4.14792 7.40775 4.07793Z" fill="#fff"/>
<path fill-rule="evenodd" clip-rule="evenodd" d="M8.70418 2C8.25727 1.99998 7.86048 1.99996 7.53144 2.02819C7.17974 2.05836 6.81631 2.12612 6.46428 2.31445C5.94998 2.58961 5.54078 3.02365 5.28718 3.54625C5.11608 3.89884 5.05425 4.26191 5.02637 4.62019C4.99997 4.95949 4.99998 5.37067 5 5.8437V18.1563C4.99998 18.6293 4.99997 19.0405 5.02637 19.3798C5.05425 19.7381 5.11608 20.1012 5.28718 20.4538C5.54078 20.9764 5.94998 21.4104 6.46428 21.6856C6.81631 21.8739 7.17974 21.9416 7.53144 21.9718C7.86049 22 8.25727 22 8.7042 22H15.2958C15.7427 22 16.1395 22 16.4686 21.9718C16.8203 21.9416 17.1837 21.8739 17.5357 21.6856C18.05 21.4104 18.4592 20.9764 18.7128 20.4538C18.8839 20.1012 18.9458 19.7381 18.9736 19.3798C19 19.0405 19 18.6293 19 18.1563V5.84371C19 5.37068 19 4.95949 18.9736 4.62019C18.9458 4.26191 18.8839 3.89883 18.7128 3.54625C18.4592 3.02364 18.05 2.58961 17.5357 2.31445C17.1837 2.12612 16.8203 2.05836 16.4686 2.02819C16.1395 1.99996 15.7428 1.99998 15.2958 2H8.70418ZM7.40775 4.07793C7.42243 4.07008 7.48237 4.03974 7.70239 4.02087C7.93561 4.00086 8.2455 4 8.74286 4H15.2571C15.7545 4 16.0644 4.00086 16.2976 4.02087C16.5176 4.03974 16.5776 4.07008 16.5923 4.07793C16.7231 4.14792 16.8384 4.26461 16.9135 4.4194C16.9292 4.45185 16.9608 4.53331 16.9797 4.77534C16.9993 5.0277 17 5.36023 17 5.88V18.12C17 18.6398 16.9993 18.9723 16.9797 19.2247C16.9608 19.4667 16.9292 19.5482 16.9135 19.5806C16.8384 19.7354 16.7231 19.8521 16.5923 19.9221C16.5776 19.9299 16.5176 19.9603 16.2976 19.9791C16.0644 19.9991 15.7545 20 15.2571 20H8.74286C8.2455 20 7.93561 19.9991 7.70239 19.9791C7.48237 19.9603 7.42243 19.9299 7.40775 19.9221C7.27693 19.8521 7.16162 19.7354 7.08651 19.5806C7.07077 19.5482 7.03918 19.4667 7.02034 19.2247C7.00071 18.9723 7 18.6398 7 18.12V5.88C7 5.36023 7.00071 5.0277 7.02034 4.77534C7.03918 4.53331 7.07077 4.45185 7.08651 4.4194C7.16163 4.26461 7.27693 4.14792 7.40775 4.07793Z" fill="#fff" fill-opacity="0.2"/>
<path fill-rule="evenodd" clip-rule="evenodd" d="M8.70418 2C8.25727 1.99998 7.86048 1.99996 7.53144 2.02819C7.17974 2.05836 6.81631 2.12612 6.46428 2.31445C5.94998 2.58961 5.54078 3.02365 5.28718 3.54625C5.11608 3.89884 5.05425 4.26191 5.02637 4.62019C4.99997 4.95949 4.99998 5.37067 5 5.8437V18.1563C4.99998 18.6293 4.99997 19.0405 5.02637 19.3798C5.05425 19.7381 5.11608 20.1012 5.28718 20.4538C5.54078 20.9764 5.94998 21.4104 6.46428 21.6856C6.81631 21.8739 7.17974 21.9416 7.53144 21.9718C7.86049 22 8.25727 22 8.7042 22H15.2958C15.7427 22 16.1395 22 16.4686 21.9718C16.8203 21.9416 17.1837 21.8739 17.5357 21.6856C18.05 21.4104 18.4592 20.9764 18.7128 20.4538C18.8839 20.1012 18.9458 19.7381 18.9736 19.3798C19 19.0405 19 18.6293 19 18.1563V5.84371C19 5.37068 19 4.95949 18.9736 4.62019C18.9458 4.26191 18.8839 3.89883 18.7128 3.54625C18.4592 3.02364 18.05 2.58961 17.5357 2.31445C17.1837 2.12612 16.8203 2.05836 16.4686 2.02819C16.1395 1.99996 15.7428 1.99998 15.2958 2H8.70418ZM7.40775 4.07793C7.42243 4.07008 7.48237 4.03974 7.70239 4.02087C7.93561 4.00086 8.2455 4 8.74286 4H15.2571C15.7545 4 16.0644 4.00086 16.2976 4.02087C16.5176 4.03974 16.5776 4.07008 16.5923 4.07793C16.7231 4.14792 16.8384 4.26461 16.9135 4.4194C16.9292 4.45185 16.9608 4.53331 16.9797 4.77534C16.9993 5.0277 17 5.36023 17 5.88V18.12C17 18.6398 16.9993 18.9723 16.9797 19.2247C16.9608 19.4667 16.9292 19.5482 16.9135 19.5806C16.8384 19.7354 16.7231 19.8521 16.5923 19.9221C16.5776 19.9299 16.5176 19.9603 16.2976 19.9791C16.0644 19.9991 15.7545 20 15.2571 20H8.74286C8.2455 20 7.93561 19.9991 7.70239 19.9791C7.48237 19.9603 7.42243 19.9299 7.40775 19.9221C7.27693 19.8521 7.16162 19.7354 7.08651 19.5806C7.07077 19.5482 7.03918 19.4667 7.02034 19.2247C7.00071 18.9723 7 18.6398 7 18.12V5.88C7 5.36023 7.00071 5.0277 7.02034 4.77534C7.03918 4.53331 7.07077 4.45185 7.08651 4.4194C7.16163 4.26461 7.27693 4.14792 7.40775 4.07793Z" fill="#fff" fill-opacity="0.2"/>
<path fill-rule="evenodd" clip-rule="evenodd" d="M8.70418 2C8.25727 1.99998 7.86048 1.99996 7.53144 2.02819C7.17974 2.05836 6.81631 2.12612 6.46428 2.31445C5.94998 2.58961 5.54078 3.02365 5.28718 3.54625C5.11608 3.89884 5.05425 4.26191 5.02637 4.62019C4.99997 4.95949 4.99998 5.37067 5 5.8437V18.1563C4.99998 18.6293 4.99997 19.0405 5.02637 19.3798C5.05425 19.7381 5.11608 20.1012 5.28718 20.4538C5.54078 20.9764 5.94998 21.4104 6.46428 21.6856C6.81631 21.8739 7.17974 21.9416 7.53144 21.9718C7.86049 22 8.25727 22 8.7042 22H15.2958C15.7427 22 16.1395 22 16.4686 21.9718C16.8203 21.9416 17.1837 21.8739 17.5357 21.6856C18.05 21.4104 18.4592 20.9764 18.7128 20.4538C18.8839 20.1012 18.9458 19.7381 18.9736 19.3798C19 19.0405 19 18.6293 19 18.1563V5.84371C19 5.37068 19 4.95949 18.9736 4.62019C18.9458 4.26191 18.8839 3.89883 18.7128 3.54625C18.4592 3.02364 18.05 2.58961 17.5357 2.31445C17.1837 2.12612 16.8203 2.05836 16.4686 2.02819C16.1395 1.99996 15.7428 1.99998 15.2958 2H8.70418ZM7.40775 4.07793C7.42243 4.07008 7.48237 4.03974 7.70239 4.02087C7.93561 4.00086 8.2455 4 8.74286 4H15.2571C15.7545 4 16.0644 4.00086 16.2976 4.02087C16.5176 4.03974 16.5776 4.07008 16.5923 4.07793C16.7231 4.14792 16.8384 4.26461 16.9135 4.4194C16.9292 4.45185 16.9608 4.53331 16.9797 4.77534C16.9993 5.0277 17 5.36023 17 5.88V18.12C17 18.6398 16.9993 18.9723 16.9797 19.2247C16.9608 19.4667 16.9292 19.5482 16.9135 19.5806C16.8384 19.7354 16.7231 19.8521 16.5923 19.9221C16.5776 19.9299 16.5176 19.9603 16.2976 19.9791C16.0644 19.9991 15.7545 20 15.2571 20H8.74286C8.2455 20 7.93561 19.9991 7.70239 19.9791C7.48237 19.9603 7.42243 19.9299 7.40775 19.9221C7.27693 19.8521 7.16162 19.7354 7.08651 19.5806C7.07077 19.5482 7.03918 19.4667 7.02034 19.2247C7.00071 18.9723 7 18.6398 7 18.12V5.88C7 5.36023 7.00071 5.0277 7.02034 4.77534C7.03918 4.53331 7.07077 4.45185 7.08651 4.4194C7.16163 4.26461 7.27693 4.14792 7.40775 4.07793Z" fill="#fff" fill-opacity="0.2"/>
<path fill-rule="evenodd" clip-rule="evenodd" d="M8.70418 2C8.25727 1.99998 7.86048 1.99996 7.53144 2.02819C7.17974 2.05836 6.81631 2.12612 6.46428 2.31445C5.94998 2.58961 5.54078 3.02365 5.28718 3.54625C5.11608 3.89884 5.05425 4.26191 5.02637 4.62019C4.99997 4.95949 4.99998 5.37067 5 5.8437V18.1563C4.99998 18.6293 4.99997 19.0405 5.02637 19.3798C5.05425 19.7381 5.11608 20.1012 5.28718 20.4538C5.54078 20.9764 5.94998 21.4104 6.46428 21.6856C6.81631 21.8739 7.17974 21.9416 7.53144 21.9718C7.86049 22 8.25727 22 8.7042 22H15.2958C15.7427 22 16.1395 22 16.4686 21.9718C16.8203 21.9416 17.1837 21.8739 17.5357 21.6856C18.05 21.4104 18.4592 20.9764 18.7128 20.4538C18.8839 20.1012 18.9458 19.7381 18.9736 19.3798C19 19.0405 19 18.6293 19 18.1563V5.84371C19 5.37068 19 4.95949 18.9736 4.62019C18.9458 4.26191 18.8839 3.89883 18.7128 3.54625C18.4592 3.02364 18.05 2.58961 17.5357 2.31445C17.1837 2.12612 16.8203 2.05836 16.4686 2.02819C16.1395 1.99996 15.7428 1.99998 15.2958 2H8.70418ZM7.40775 4.07793C7.42243 4.07008 7.48237 4.03974 7.70239 4.02087C7.93561 4.00086 8.2455 4 8.74286 4H15.2571C15.7545 4 16.0644 4.00086 16.2976 4.02087C16.5176 4.03974 16.5776 4.07008 16.5923 4.07793C16.7231 4.14792 16.8384 4.26461 16.9135 4.4194C16.9292 4.45185 16.9608 4.53331 16.9797 4.77534C16.9993 5.0277 17 5.36023 17 5.88V18.12C17 18.6398 16.9993 18.9723 16.9797 19.2247C16.9608 19.4667 16.9292 19.5482 16.9135 19.5806C16.8384 19.7354 16.7231 19.8521 16.5923 19.9221C16.5776 19.9299 16.5176 19.9603 16.2976 19.9791C16.0644 19.9991 15.7545 20 15.2571 20H8.74286C8.2455 20 7.93561 19.9991 7.70239 19.9791C7.48237 19.9603 7.42243 19.9299 7.40775 19.9221C7.27693 19.8521 7.16162 19.7354 7.08651 19.5806C7.07077 19.5482 7.03918 19.4667 7.02034 19.2247C7.00071 18.9723 7 18.6398 7 18.12V5.88C7 5.36023 7.00071 5.0277 7.02034 4.77534C7.03918 4.53331 7.07077 4.45185 7.08651 4.4194C7.16163 4.26461 7.27693 4.14792 7.40775 4.07793Z" fill="#fff" fill-opacity="0.2"/>
</svg>
